<svg width="54" height="54" viewBox="0 0 54 54" fill="none" xmlns="http://www.w3.org/2000/svg">
<path d="M20.0857 47.25C18.2452 47.25 16.5173 46.9089 14.9018 46.2268C13.2866 45.5447 11.8631 44.5877 10.6312 43.3558C9.408 42.1326 8.45531 40.7154 7.77319 39.1044C7.09106 37.4934 6.75 35.7634 6.75 33.9143C6.75 31.2604 7.45594 28.8259 8.86781 26.6107C10.2801 24.3952 12.2222 22.7741 14.6942 21.7474C15.3864 20.1435 16.3298 18.7372 17.5241 17.5286C18.7181 16.3196 20.1259 15.3748 21.7474 14.6942C22.803 12.2338 24.393 10.2947 26.5174 8.87681C28.6421 7.45894 31.1121 6.75 33.9272 6.75C35.7677 6.75 37.4934 7.09106 39.1044 7.77319C40.7154 8.45531 42.1326 9.41231 43.3558 10.6442C44.5502 11.9049 45.4978 13.3314 46.1987 14.9237C46.8996 16.5159 47.25 18.2323 47.25 20.0728C47.25 22.8478 46.5786 25.2846 45.2357 27.3831C43.8928 29.4816 41.9162 31.1047 39.3058 32.2526C38.6136 33.9026 37.6796 35.3083 36.504 36.4697C35.3288 37.6307 33.9116 38.5761 32.2526 39.3058C31.2259 41.7662 29.643 43.7053 27.504 45.1232C25.365 46.5411 22.8922 47.25 20.0857 47.25ZM20.1724 45.5192C22.0616 45.5192 23.943 45.0382 25.8165 44.0764C27.69 43.1141 29.0998 41.7446 30.0459 39.9679C27.6834 40.461 25.4241 40.3708 23.2678 39.6973C21.1116 39.0238 19.2373 37.9241 17.6451 36.3982C16.0817 34.8146 14.9653 32.9497 14.2959 30.8036C13.6269 28.6571 13.539 26.4026 14.0321 24.0401C12.2756 25.044 10.9112 26.454 9.93881 28.2701C8.96681 30.0859 8.48081 31.9673 8.48081 33.9143C8.48081 35.544 8.78081 37.0614 9.38081 38.4666C9.98081 39.8713 10.8144 41.103 11.8817 42.1616C12.9778 43.2202 14.2262 44.0445 15.6268 44.6344C17.0271 45.2242 18.5422 45.5192 20.1724 45.5192ZM27 38.592C29.3509 38.592 31.3961 38.0265 33.1358 36.8955C34.875 35.7649 36.1543 34.4797 36.9737 33.0401C34.6112 33.5336 32.3539 33.4393 30.2017 32.7572C28.05 32.0747 26.1967 30.9517 24.642 29.3884C23.0497 27.7875 21.9146 25.9161 21.2366 23.7741C20.5586 21.6324 20.4851 19.3804 21.0161 17.0179C19.3429 18.0967 18.0043 19.4604 17.0004 21.1089C15.9966 22.7574 15.4946 24.7211 15.4946 27C15.4946 28.5922 15.7875 30.0908 16.3732 31.4955C16.9586 32.9003 17.7849 34.1364 18.8522 35.2041C19.9108 36.2916 21.1354 37.128 22.5259 37.7134C23.9164 38.2991 25.4077 38.592 27 38.592ZM34.1089 31.5951C34.7752 31.5951 35.4294 31.5367 36.0714 31.4201C36.7131 31.3031 37.3802 31.1091 38.0728 30.8379C38.8603 28.5966 38.9843 26.4266 38.4446 24.3281C37.9054 22.2296 36.8496 20.3944 35.2772 18.8224C33.7888 17.3336 31.9333 16.308 29.7107 15.7455C27.4881 15.183 25.3067 15.2724 23.1666 16.0138C22.9502 16.6513 22.7878 17.2931 22.6794 17.9392C22.5714 18.5854 22.5174 19.2966 22.5174 20.0728C22.5174 21.6478 22.8174 23.1377 23.4174 24.5424C24.0174 25.9472 24.8511 27.1875 25.9183 28.2634C26.9856 29.3767 28.2216 30.2104 29.6263 30.7643C31.0311 31.3181 32.5252 31.5951 34.1089 31.5951ZM40.1625 29.9857C41.8414 28.9845 43.1539 27.6921 44.1 26.1084C45.0461 24.5248 45.5192 22.5129 45.5192 20.0728C45.5192 18.4892 45.2265 16.9971 44.6411 15.5964C44.0554 14.1958 43.2144 12.9619 42.1183 11.8946C41.0424 10.7899 39.8042 9.94463 38.4036 9.35888C37.0029 8.7735 35.5108 8.48081 33.9272 8.48081C31.7724 8.48081 29.8513 8.96325 28.1638 9.92812C26.4763 10.893 25.047 12.2336 23.8759 13.95C26.2384 13.4569 28.5188 13.5514 30.717 14.2335C32.9149 14.9156 34.8187 16.0427 36.4286 17.6147C38.0381 19.2159 39.1933 21.0874 39.8942 23.229C40.5951 25.371 40.6845 27.6232 40.1625 29.9857Z" fill="#01104E"/>
</svg>
