<svg width="54" height="54" viewBox="0 0 54 54" fill="none" xmlns="http://www.w3.org/2000/svg">
<path d="M10.0603 42.3174L7.14374 21.7642C7.08899 21.2681 7.21518 20.8194 7.5223 20.4182C7.82943 20.0169 8.22674 19.7906 8.71424 19.7392L11.7607 42.0834C11.8185 42.4296 11.9987 42.7252 12.3013 42.9705C12.6043 43.2157 12.9433 43.3239 13.3183 43.2951L43.2214 39.6129H42.8974C42.9259 40.1582 42.762 40.6155 42.4057 40.9849C42.0495 41.3539 41.6134 41.5802 41.0974 41.6638L13.4826 44.9826C12.6692 45.0662 11.9248 44.8472 11.2494 44.3256C10.5744 43.8036 10.1781 43.1342 10.0603 42.3174ZM17.4808 34.7107C16.6161 34.7107 15.8807 34.4076 15.2747 33.8012C14.6683 33.1952 14.3651 32.4598 14.3651 31.5951V12.1151C14.3651 11.2508 14.6683 10.5154 15.2747 9.909C15.8807 9.303 16.6161 9 17.4808 9H44.1349C44.9992 9 45.7346 9.303 46.341 9.909C46.947 10.5154 47.25 11.2508 47.25 12.1151V31.5951C47.25 32.4598 46.947 33.1952 46.341 33.8012C45.7346 34.4076 44.9992 34.7107 44.1349 34.7107H17.4808ZM17.4808 32.9799H44.1349C44.5384 32.9799 44.8701 32.85 45.1299 32.5901C45.3894 32.3306 45.5192 31.9989 45.5192 31.5951V12.1151C45.5192 11.7116 45.3894 11.3799 45.1299 11.1201C44.8701 10.8606 44.5384 10.7308 44.1349 10.7308H17.4808C17.0769 10.7308 16.7452 10.8606 16.4857 11.1201C16.2259 11.3799 16.0959 11.7116 16.0959 12.1151V31.5951C16.0959 31.9989 16.2259 32.3306 16.4857 32.5901C16.7452 32.85 17.0769 32.9799 17.4808 32.9799ZM22.9326 18.9349H38.6826V17.2041H22.9326V18.9349ZM22.9326 26.55H31.9196V24.8192H22.9326V26.55Z" fill="#01104E"/>
</svg>
