<svg width="54" height="54" viewBox="0 0 54 54" fill="none" xmlns="http://www.w3.org/2000/svg">
<path d="M27 47.1505C22.4711 45.7803 18.714 43.0075 15.7286 38.8323C12.7429 34.6567 11.25 29.9785 11.25 24.7979V12.7947L27 6.9104L42.75 12.7947V24.7979C42.75 25.0113 42.7477 25.2175 42.7432 25.4167C42.7391 25.6154 42.7284 25.8217 42.7112 26.0354C42.4948 26.0354 42.2987 26.026 42.1228 26.0073C41.9466 25.9885 41.7662 25.9792 41.5817 25.9792C41.4789 25.9792 41.3692 25.9928 41.2526 26.0202C41.1364 26.0476 41.0269 26.0699 40.9241 26.0872C40.9702 25.8505 40.9976 25.6298 41.0062 25.4251C41.0149 25.2203 41.0192 25.0113 41.0192 24.7979V13.9889L27 8.73628L12.9808 13.9889V24.7979C12.9808 29.5083 14.2969 33.7767 16.929 37.6032C19.5611 41.4297 22.9181 43.9977 27 45.3072C27.5704 45.1396 28.1413 44.9167 28.7128 44.6384C29.2843 44.3602 29.8283 44.0467 30.3446 43.6979V45.7268C29.8358 46.031 29.2944 46.3027 28.7207 46.5419C28.1466 46.7815 27.573 46.9844 27 47.1505ZM36.8437 47.2501C36.3101 47.2501 35.8117 47.0114 35.3486 46.534C34.8859 46.0567 34.6545 45.5656 34.6545 45.0608V39.0202C34.6545 38.4865 34.8859 37.9955 35.3486 37.547C35.8117 37.0985 36.3101 36.8742 36.8437 36.8742H36.9737V34.6242C36.9737 33.476 37.3566 32.498 38.1223 31.6902C38.8881 30.8828 39.8407 30.4792 40.9804 30.4792C42.1196 30.4792 43.0701 30.8828 43.8317 31.6902C44.5933 32.498 44.9741 33.476 44.9741 34.6242V36.8742H45.117C45.6248 36.8742 46.1072 37.0985 46.5643 37.547C47.0214 37.9955 47.25 38.4865 47.25 39.0202V45.0608C47.25 45.5656 47.0214 46.0567 46.5643 46.534C46.1072 47.0114 45.6248 47.2501 45.117 47.2501H36.8437ZM38.7045 36.8742H43.2996V34.6242C43.2996 33.932 43.0766 33.3565 42.6307 32.8979C42.1852 32.4393 41.6351 32.21 40.9804 32.21C40.317 32.21 39.7718 32.4393 39.3446 32.8979C38.9179 33.3565 38.7045 33.932 38.7045 34.6242V36.8742Z" fill="#01104E"/>
</svg>
