<svg width="54" height="54" viewBox="0 0 54 54" fill="none" xmlns="http://www.w3.org/2000/svg">
<path d="M9.12094 29.2888C9.07481 28.9168 9.033 28.5375 8.9955 28.1509C8.958 27.7642 8.93925 27.3806 8.93925 27C8.93925 24.5047 9.41381 22.1661 10.3629 19.9839C11.3121 17.8018 12.6022 15.8951 14.2335 14.2639C15.8647 12.6326 17.7787 11.3475 19.9755 10.4085C22.1719 9.4695 24.5134 9 27 9C29.4866 9 31.8354 9.4695 34.0464 10.4085C36.2574 11.3475 38.1808 12.6326 39.8166 14.2639C41.4519 15.8951 42.7442 17.8018 43.6933 19.9839C44.6424 22.1661 45.117 24.5047 45.117 27C45.117 27.3806 45.0982 27.7642 45.0607 28.1509C45.0232 28.5375 44.9814 28.9168 44.9353 29.2888H43.1916C43.2377 28.9168 43.2816 28.5375 43.3232 28.1509C43.3652 27.7642 43.3862 27.3806 43.3862 27C43.3862 26.4259 43.3601 25.8591 43.308 25.2996C43.2562 24.7401 43.164 24.1732 43.0312 23.5991H34.1522C34.1897 24.1732 34.2251 24.7401 34.2585 25.2996C34.2915 25.8591 34.308 26.4259 34.308 27C34.308 27.3806 34.2986 27.7549 34.2799 28.1227C34.2611 28.4906 34.2474 28.8793 34.2388 29.2888H32.5642C32.5729 28.9629 32.5772 28.6515 32.5772 28.3545V27.4629C32.5772 26.7388 32.5701 26.0666 32.5558 25.4464C32.5412 24.8265 32.4964 24.2107 32.4214 23.5991H21.5916C21.5166 24.2107 21.4697 24.8265 21.4509 25.4464C21.4322 26.0666 21.4228 26.7388 21.4228 27.4629V28.3759C21.4228 28.6875 21.4271 28.9918 21.4357 29.2888H19.7612C19.7237 28.9168 19.7027 28.5375 19.6982 28.1509C19.6941 27.7642 19.692 27.3806 19.692 27C19.692 26.4259 19.7085 25.8591 19.7415 25.2996C19.7749 24.7401 19.8103 24.1732 19.8478 23.5991H11.025C10.8922 24.1732 10.8 24.7401 10.7482 25.2996C10.6961 25.8591 10.6701 26.4259 10.6701 27C10.6701 27.3806 10.6911 27.7642 10.7331 28.1509C10.7747 28.5375 10.8186 28.9168 10.8647 29.2888H9.12094ZM11.5054 21.8683H20.0683C20.4636 19.2662 21.0694 17.0839 21.8857 15.3214C22.7021 13.5589 23.7896 12.0431 25.1482 10.7741C21.9547 11.1607 19.1336 12.3506 16.6849 14.3437C14.2357 16.3369 12.5092 18.8451 11.5054 21.8683ZM21.825 21.8683H32.175C31.875 19.8231 31.2836 17.8789 30.4009 16.0358C29.5181 14.1923 28.3845 12.5177 27 11.0121C25.6155 12.5466 24.489 14.2283 23.6205 16.0571C22.7524 17.886 22.1539 19.8231 21.825 21.8683ZM33.9317 21.8683H42.5942C41.5614 18.8162 39.7896 16.3009 37.2786 14.3224C34.7676 12.3435 31.9011 11.1607 28.6791 10.7741C30.0954 12.0431 31.2261 13.5877 32.0709 15.408C32.9162 17.2282 33.5364 19.3817 33.9317 21.8683ZM26.1349 45V43.5459C26.1349 41.4084 25.3747 39.594 23.8545 38.1026C22.3342 36.6116 20.5054 35.8661 18.3679 35.8661H6.75V34.1353H18.3679C20.214 34.1353 21.9073 34.6097 23.4478 35.5584C24.9879 36.5076 26.172 37.7899 27 39.4054C27.828 37.7899 29.0027 36.5076 30.5241 35.5584C32.0458 34.6097 33.7298 34.1353 35.5759 34.1353H47.25V35.8661H35.5759C33.447 35.8661 31.6297 36.6139 30.1241 38.1094C28.6181 39.6049 27.8651 41.4171 27.8651 43.5459V45H26.1349Z" fill="#01104E"/>
</svg>
