<svg width="66" height="35" viewBox="0 0 66 35" fill="none" xmlns="http://www.w3.org/2000/svg">
<path d="M40.5279 17.4956L40.5263 17.4996L40.5327 17.506L40.5343 17.502L40.5279 17.4956Z" fill="#1DA9FF"/>
<path d="M25.4705 17.5082L25.4745 17.5034L25.4681 17.4971L25.4641 17.5018L25.4705 17.5082Z" fill="#1DA9FF"/>
<path d="M64.1346 12.9717L53.0749 1.87284C50.5866 -0.624279 46.5373 -0.624279 44.0498 1.87284L34.5067 11.4521L39.0224 15.9839L48.5544 6.40697L59.6165 17.4947L48.5695 28.596L48.5671 28.5936L39.024 19.0167L37.5177 17.5051L37.5217 17.5011L37.5153 17.4947L32.9996 12.963L31.4933 11.4498L21.9502 1.87284C19.4619 -0.624279 15.4126 -0.624279 12.9251 1.87284L1.86622 12.9717C-0.622073 15.4689 -0.622073 19.5325 1.86622 22.0289L12.9259 33.1278C14.1697 34.3759 15.8037 35 17.4377 35C19.0717 35 20.7073 34.3759 21.951 33.1278L31.4941 23.5508L26.976 19.0191L17.4456 28.596L17.4432 28.5936L6.38433 17.5083L17.4313 6.40697L28.4823 17.4971L28.4783 17.5011L28.4823 17.5051L33.0004 22.0392L44.049 33.127C45.2927 34.3751 46.9267 34.9992 48.5607 34.9992C50.1948 34.9992 51.8303 34.3751 53.0741 33.127L64.1338 22.0281C66.6221 19.5309 66.6221 15.4673 64.1338 12.9709L64.1346 12.9717Z" fill="#1DA9FF"/>
</svg>
