<svg width="54" height="54" viewBox="0 0 54 54" fill="none" xmlns="http://www.w3.org/2000/svg">
<path d="M18.3381 28.3849C17.9713 28.3849 17.6501 28.2442 17.3745 27.963C17.0992 27.6821 16.9616 27.3583 16.9616 26.9916C16.9616 26.6252 17.1021 26.3042 17.3829 26.0286C17.6642 25.7529 17.988 25.6151 18.3544 25.6151C18.7211 25.6151 19.0421 25.7557 19.3174 26.037C19.593 26.3179 19.7308 26.6417 19.7308 27.0084C19.7308 27.3748 19.5902 27.6958 19.3089 27.9714C19.0281 28.2471 18.7044 28.3849 18.3381 28.3849ZM26.9916 28.3849C26.6252 28.3849 26.3042 28.2442 26.0286 27.963C25.7529 27.6821 25.6151 27.3583 25.6151 26.9916C25.6151 26.6252 25.7557 26.3042 26.037 26.0286C26.3179 25.7529 26.6417 25.6151 27.0084 25.6151C27.3748 25.6151 27.6958 25.7557 27.9714 26.037C28.2471 26.3179 28.3849 26.6417 28.3849 27.0084C28.3849 27.3748 28.2442 27.6958 27.963 27.9714C27.6821 28.2471 27.3583 28.3849 26.9916 28.3849ZM35.6023 28.3849C35.2356 28.3849 34.9146 28.2442 34.6393 27.963C34.3637 27.6821 34.2259 27.3583 34.2259 26.9916C34.2259 26.6252 34.3665 26.3042 34.6478 26.0286C34.9286 25.7529 35.2524 25.6151 35.6192 25.6151C35.9856 25.6151 36.3066 25.7557 36.5822 26.037C36.8574 26.3179 36.9951 26.6417 36.9951 27.0084C36.9951 27.3748 36.8546 27.6958 36.5737 27.9714C36.2925 28.2471 35.9687 28.3849 35.6023 28.3849ZM33.0576 47.25C32.2232 47.25 31.4955 46.9393 30.8745 46.3179C30.2531 45.6969 29.9424 44.9692 29.9424 44.1349V34.6584H31.6733V44.1349C31.6733 44.5384 31.803 44.8701 32.0625 45.1299C32.322 45.3894 32.6537 45.5192 33.0576 45.5192H46.3849C46.7884 45.5192 47.1201 45.3894 47.3799 45.1299C47.6394 44.8701 47.7692 44.5384 47.7692 44.1349V14.1058C47.7692 13.7019 47.6394 13.3703 47.3799 13.1108C47.1201 12.8509 46.7884 12.7209 46.3849 12.7209H33.0576C32.6537 12.7209 32.322 12.8509 32.0625 13.1108C31.803 13.3703 31.6733 13.7019 31.6733 14.1058V19.3849H29.9424V14.1058C29.9424 13.2714 30.2531 12.5436 30.8745 11.9222C31.4955 11.3008 32.2232 10.9901 33.0576 10.9901H46.3849C47.2192 10.9901 47.9469 11.3008 48.5679 11.9222C49.1893 12.5436 49.5 13.2714 49.5 14.1058V44.1349C49.5 44.9692 49.1893 45.6969 48.5679 46.3179C47.9469 46.9393 47.2192 47.25 46.3849 47.25H33.0576ZM7.61513 43.0099C6.78075 43.0099 6.05306 42.6992 5.43206 42.0778C4.81069 41.4564 4.5 40.7286 4.5 39.8942V9.86513C4.5 9.03075 4.81069 8.30306 5.43206 7.68206C6.05306 7.06069 6.78075 6.75 7.61513 6.75H20.9424C21.7768 6.75 22.5047 7.06069 23.1261 7.68206C23.7471 8.30306 24.0576 9.03075 24.0576 9.86513V19.3849H22.3268V9.86513C22.3268 9.46163 22.197 9.12994 21.9375 8.87006C21.678 8.61056 21.3463 8.48081 20.9424 8.48081H7.61513C7.21163 8.48081 6.87994 8.61056 6.62006 8.87006C6.36056 9.12994 6.23081 9.46163 6.23081 9.86513V39.8942C6.23081 40.2981 6.36056 40.6297 6.62006 40.8892C6.87994 41.1491 7.21163 41.2791 7.61513 41.2791H20.9424C21.3463 41.2791 21.678 41.1491 21.9375 40.8892C22.197 40.6297 22.3268 40.2981 22.3268 39.8942V34.6584H24.0576V39.8942C24.0576 40.7286 23.7471 41.4564 23.1261 42.0778C22.5047 42.6992 21.7768 43.0099 20.9424 43.0099H7.61513ZM39.726 19.017C40.0661 19.017 40.3558 18.9028 40.5951 18.6744C40.8347 18.4461 40.9545 18.1618 40.9545 17.8217C40.9545 17.4819 40.8334 17.1923 40.5911 16.9526C40.3485 16.7134 40.0641 16.5937 39.7378 16.5937C39.3834 16.5937 39.0937 16.7149 38.8687 16.9571C38.6437 17.1994 38.5312 17.4838 38.5312 17.8104C38.5312 18.1648 38.6454 18.4545 38.8738 18.6795C39.1022 18.9045 39.3862 19.017 39.726 19.017ZM14.2841 14.7504C14.6239 14.7504 14.9134 14.6293 15.1526 14.3871C15.3922 14.1452 15.5121 13.8611 15.5121 13.5349C15.5121 13.2086 15.3909 12.9259 15.1487 12.6866C14.9064 12.447 14.622 12.3272 14.2954 12.3272C13.941 12.3272 13.6513 12.4483 13.4263 12.6906C13.2013 12.9328 13.0888 13.2169 13.0888 13.5428C13.0888 13.869 13.203 14.1519 13.4314 14.3916C13.6597 14.6308 13.944 14.7504 14.2841 14.7504Z" fill="#01104E"/>
</svg>
